<svg xmlns="http://www.w3.org/2000/svg" xmlns:xlink="http://www.w3.org/1999/xlink" width="0" height="0" style="position:absolute">
    <filter id="svgBlur" x="-5%" y="-5%" width="110%" height="110%">
        <feGaussianBlur in="SourceGraphic" stdDeviation="5"/>
    </filter>
    <symbol id="sidebar-logo" viewBox="0 0 364.6 151.3">
        <g>
            <path   d="M109.1,34.7c-8.2,0-14.5-6.4-14.5-15.3c0-9,6.3-15.3,14.5-15.3c4.3,0,8.2,2.3,10.3,5.5l3.9-2.2   c-3-4.2-7.6-7.4-14.2-7.4C98.3,0,89.8,7.9,89.8,19.4c0,11.5,8.5,19.4,19.3,19.4c6.6,0,11.2-3.2,14.3-7.4l-4-2.2   C117.2,32.4,113.4,34.7,109.1,34.7z"/>
            <path   d="M200.8,0.6h-15.1v37.6h4.7V23.3h10.4c7.4,0,11.8-5.2,11.8-11.3C212.6,5.8,208.4,0.6,200.8,0.6z M200.3,19.1   h-9.9V4.8h9.9c4.5,0,7.5,2.9,7.5,7.2C207.8,16.2,204.7,19.1,200.3,19.1z"/>
            <rect x="229.5" y="0.6"   width="4.7" height="37.6"/>
            <polygon   points="251.6,4.8 263.5,4.8 263.5,38.2 268.2,38.2 268.2,4.8 280.1,4.8 280.1,0.6 251.6,0.6  "/>
            <polygon   points="347.1,0.6 342.5,0.6 342.5,38.2 364.6,38.2 364.6,34 347.1,34  "/>
            <polygon   points="150.2,0.6 135.1,38.2 140.1,38.2 153.1,5.5 165.9,38.2 171.1,38.2 156,0.6  "/>
            <polygon   points="306.9,0.6 291.8,38.2 296.8,38.2 309.8,5.5 322.7,38.2 327.8,38.2 312.7,0.6  "/>
        </g>
        <g>
            <polygon   points="215.1,106.6 206.5,75.3 202.6,75.3 194,106.6 185.7,75.3 180.5,75.3 191.2,112.8 196.3,112.8    204.5,82.5 212.8,112.8 217.9,112.8 228.6,75.3 223.4,75.3  "/>
            <polygon   points="89.8,79.4 101.6,79.4 101.6,112.8 106.3,112.8 106.3,79.4 118.3,79.4 118.3,75.2 89.8,75.2  "/>
            <path   d="M147.9,74.6c-11.2,0-18.6,8.3-18.6,19.4c0,11.1,7.5,19.4,18.6,19.4c11.1,0,18.6-8.3,18.6-19.4   C166.5,82.9,159,74.6,147.9,74.6z M147.9,109.3c-8.4,0-13.8-6.5-13.8-15.3c0-8.8,5.4-15.3,13.8-15.3c8.4,0,13.8,6.5,13.8,15.3   C161.7,102.7,156.3,109.3,147.9,109.3z"/>
            <polygon   points="246.1,112.8 270.7,112.8 270.7,108.6 250.8,108.6 250.8,95.7 270.3,95.7 270.3,91.5 250.8,91.5    250.8,79.4 270.7,79.4 270.7,75.2 246.1,75.2  "/>
            <path   d="M337.3,84.8c0-3.6,3.2-6,7.7-6c4.1,0,8.1,1.4,10.9,4.5l2.8-3.4c-3.2-3.3-7.6-5.2-13.3-5.2   c-7.4,0-12.9,4.2-12.9,10.4c0,13.4,22.2,8.1,22.2,17.7c0,2.9-2.1,6.5-8.8,6.5c-5.3,0-9.3-2.6-11.8-5.4l-2.8,3.6   c3.1,3.5,7.9,6,14.4,6c10.1,0,13.9-5.6,13.9-11C359.6,88.4,337.3,93.2,337.3,84.8z"/>
            <path   d="M315.1,86.5c0-6.9-4.9-11.3-11.8-11.3h-15.1v37.6h4.7V79.4h9.9c4.4,0,7.5,2.9,7.5,7.2c0,4.2-3,7.2-7.5,7.2h-5   l12.2,19h5.5l-10.1-15.3C310.5,97,315.1,93.3,315.1,86.5z"/>
        </g>
        <g>
            <rect y="0"   width="4.8" height="151.3"/>
            <rect x="16.5" y="0"   width="4.8" height="151.3"/>
            <rect x="33" y="0"   width="4.8" height="113.4"/>
        </g>
    </symbol>
    <symbol id="arrow" viewBox="0 0 41 20.8" >
                 <path   d="M31.3,20.2c-0.4,0.4-1.1,0.4-1.5,0s-0.4-1.1,0-1.4l7.4-7.4H1.1c-0.6,0-1-0.5-1-1c0-0.6,0.5-1,1-1h36.1L29.8,2  c-0.4-0.4-0.4-1.1,0-1.5s1.1-0.4,1.5,0l9.2,9.2c0.4,0.4,0.4,1.1,0,1.4L31.3,20.2z"/>
        </symbol>
    <symbol id="map-1"  viewBox="0 0 512 473.1"  >
        <g>
            <path   d="M214.3,377.2c-26,0-47.2,21.2-47.2,47.2s21.2,47.2,47.2,47.2s47.2-21.2,47.2-47.2   C261.5,398.4,240.3,377.2,214.3,377.2z M230.8,424.4c0,9.1-7.4,16.4-16.4,16.4s-16.4-7.4-16.4-16.4c0-9.1,7.4-16.4,16.4-16.4   S230.8,415.3,230.8,424.4z"/>
            <path   d="M369.1,377.2c-26,0-47.2,21.2-47.2,47.2s21.2,47.2,47.2,47.2s47.2-21.2,47.2-47.2   C416.3,398.4,395.2,377.2,369.1,377.2z M385.6,424.4c0,9.1-7.4,16.4-16.4,16.4s-16.4-7.4-16.4-16.4c0-9.1,7.4-16.4,16.4-16.4   S385.6,415.3,385.6,424.4z"/>
            <path   d="M203.4,175.6H380c8.5,0,15.4-6.9,15.4-15.4s-6.9-15.4-15.4-15.4H203.4c-8.5,0-15.4,6.9-15.4,15.4   S194.9,175.6,203.4,175.6z"/>
            <path   d="M370.4,208.8H213c-8.5,0-15.4,6.9-15.4,15.4c0,8.5,6.9,15.4,15.4,15.4h157.4c8.5,0,15.4-6.9,15.4-15.4   C385.8,215.7,378.9,208.8,370.4,208.8z"/>
            <path   d="M502.6,91c-5.3-6.5-13.1-10.2-21.5-10.2H99.8l-7.3-35.2c-1.8-8.8-7.8-16.2-16.1-19.8L22.3,2.3   c-3.8-1.6-7.9-1.7-11.8-0.2c-3.8,1.5-6.8,4.4-8.5,8.2c-1.6,3.8-1.7,7.9-0.2,11.8c1.5,3.8,4.4,6.8,8.2,8.5l52.6,22.8L122,341.3   c2.6,12.8,14,22.1,27.1,22.1h295.2c8.5,0,15.4-6.9,15.4-15.4c0-8.5-6.9-15.4-15.4-15.4H151.6l-6-29.1h301   c13.1,0,24.5-9.3,27.1-22.1l34.5-167.3C509.9,105.9,507.9,97.5,502.6,91z M477.4,111.6l-33.2,161.2H139.3l-33.2-161.2L477.4,111.6z   "/>
        </g>
    </symbol>
    <symbol id="map-2" viewBox="0 0 512 445" >
       <path   d="M482,266.5V127.6l20.2-7.6c5.9-2.2,9.7-7.8,9.8-14s-3.9-11.9-9.7-14.1l-241-91c-3.4-1.3-7.2-1.3-10.6,0L9.7,92  C3.9,94.2,0,99.8,0,106s3.9,11.8,9.8,14L91,150.4v109.4c0,6.1,3.7,11.6,9.4,13.9c49.7,19.9,102,30,155.6,30s105.9-10.1,155.6-30  c5.7-2.3,9.4-7.8,9.4-13.9V150.4l31-11.6v127.6c-17.5,6.2-30,22.9-30,42.4c0,11.5,4.4,22,11.5,30c-7.1,8-11.5,18.5-11.5,30v61  c0,8.3,6.7,15,15,15h60c8.3,0,15-6.7,15-15v-61c0-11.5-4.4-22-11.5-30c7.1-8,11.5-18.5,11.5-30C512,289.3,499.5,272.7,482,266.5z   M256,31l198.3,74.9c-8.8,3.3-189.6,70.8-198.3,74.1c-6.6-2.5-184.1-68.8-198.3-74.1L256,31z M391,249.5  c-87.4,32.4-182.6,32.4-270,0v-87.9l129.8,48.5c3.4,1.3,7.1,1.3,10.5,0L391,161.6V249.5z M467,293.9c8.3,0,15,6.7,15,15  c0,8.3-6.7,15-15,15s-15-6.7-15-15C452,300.6,458.7,293.9,467,293.9z M482,414.9h-30v-46c0-8.3,6.7-15,15-15s15,6.7,15,15V414.9z"/>
    </symbol>
    <symbol id="map-3"  viewBox="0 0 516.2 462.8" >
        <path   d="M401.6,171.2c-0.9,3.8-0.2,7.7,1.9,11c2.1,3.3,5.3,5.6,9.1,6.4c3.8,0.9,7.7,0.2,11-1.9l85.3-53.7   c4.3-2.7,6.9-7.5,6.8-12.6c-0.1-5.1-2.9-9.8-7.3-12.3L321.6,1.9c-4.7-2.7-10.4-2.5-14.9,0.3L6.8,191.1c-4.3,2.7-6.9,7.5-6.8,12.6   c0.1,5.1,2.9,9.8,7.3,12.3l186.7,106.1c2.2,1.2,4.7,1.9,7.2,1.9c2.7,0,5.4-0.8,7.7-2.2l85.3-53.7c3.3-2.1,5.6-5.3,6.4-9.1   c0.9-3.8,0.2-7.7-1.9-11c-2.1-3.3-5.3-5.6-9.1-6.4c-3.8-0.9-7.7-0.2-11,1.9l-78,49.1l-158-89.8l92-58l171.8,97.6v129.9   c0,5.3,2.9,10.2,7.5,12.7c2.1,1.2,4.6,1.8,7,1.8c2.7,0,5.4-0.8,7.7-2.2l60-37.8c4.3-2.7,6.8-7.3,6.8-12.3V196.2c0-0.1,0-0.2,0-0.4   c0-0.4,0-0.9-0.1-1.3l-3,0.3l0,0l3-0.4c0-0.1,0-0.2,0-0.3c-0.1-0.6-0.2-1.1-0.3-1.6l0-0.2c-0.1-0.5-0.3-1-0.5-1.6   c0-0.1-0.1-0.2-0.2-0.5c-0.2-0.4-0.4-0.8-0.6-1.2c-0.1-0.1-0.2-0.3-0.2-0.4c-0.1-0.1-0.1-0.2-0.2-0.3c-0.2-0.3-0.4-0.7-0.6-0.9   l-0.2-0.2c-0.3-0.5-0.7-0.9-1.2-1.3c-0.1-0.1-0.1-0.1-0.2-0.2c-0.4-0.3-0.7-0.7-1.2-1c-0.1-0.1-0.2-0.1-0.2-0.2   c-0.6-0.4-1.1-0.8-1.6-1L222.7,89.5l92-58l158,89.8L408,162.1C404.7,164.2,402.4,167.4,401.6,171.2z M328.4,221.3l-165.6-94.1   l32.1-20.2l158,89.8l-10.1,6.4c-3.3,2.1-5.6,5.3-6.4,9.1c-0.9,3.8-0.2,7.7,1.9,11c2.7,4.3,7.3,6.8,12.3,6.8c2.7,0,5.4-0.8,7.7-2.2   l8.4-5.3v104L335.7,346V234C335.7,228.8,332.9,223.9,328.4,221.3z"/>
        <path   d="M504.3,152.6c-3.8-0.9-7.7-0.2-11,1.9L408,208.2c-3.3,2.1-5.6,5.3-6.4,9.1s-0.2,7.7,1.9,11   c2.7,4.3,7.3,6.8,12.3,6.8c2.7,0,5.4-0.8,7.7-2.2l85.3-53.7c3.3-2.1,5.6-5.3,6.4-9.1c0.9-3.8,0.2-7.7-1.9-11   C511.3,155.8,508.1,153.5,504.3,152.6z"/>
        <path   d="M289.8,287.7c-3.8-0.9-7.7-0.2-11,1.9l0,0l-78,49.1L21.7,236.9c-3.4-1.9-7.3-2.4-11-1.4   c-3.7,1-6.9,3.5-8.8,6.8s-2.4,7.3-1.4,11c1,3.7,3.5,6.9,6.8,8.8l186.7,106.1c2.2,1.2,4.7,1.9,7.2,1.9c2.7,0,5.4-0.8,7.7-2.2   l85.3-53.7c3.3-2.1,5.6-5.3,6.4-9.1c0.9-3.8,0.2-7.7-1.9-11C296.8,290.8,293.6,288.6,289.8,287.7z"/>
        <path   d="M504.3,198.7c-3.8-0.9-7.7-0.2-11,1.9v0L408,254.4c-3.3,2.1-5.6,5.3-6.4,9.1c-0.9,3.8-0.2,7.7,1.9,11   c2.7,4.3,7.3,6.8,12.3,6.8c2.7,0,5.4-0.8,7.7-2.2l85.3-53.7c3.3-2.1,5.6-5.3,6.4-9.1c0.9-3.8,0.2-7.7-1.9-11   C511.3,201.9,508.1,199.6,504.3,198.7z"/>
        <path   d="M289.8,333.8c-3.8-0.9-7.7-0.2-11,1.9l0,0l-78,49.1L21.7,283c-3.4-1.9-7.3-2.4-11-1.4c-3.7,1-6.9,3.5-8.8,6.8   s-2.4,7.3-1.4,11c1,3.7,3.5,6.9,6.8,8.8l186.7,106.1c2.2,1.2,4.7,1.9,7.2,1.9c2.7,0,5.4-0.8,7.7-2.2l85.3-53.7   c3.3-2.1,5.6-5.3,6.4-9.1c0.9-3.8,0.2-7.7-1.9-11C296.8,337,293.6,334.7,289.8,333.8z"/>
        <path   d="M504.3,244.9c-3.8-0.9-7.7-0.2-11,1.9L408,300.5c-3.3,2.1-5.6,5.3-6.4,9.1c-0.9,3.8-0.2,7.7,1.9,11   c2.7,4.3,7.3,6.8,12.3,6.8c2.7,0,5.4-0.8,7.7-2.2l85.3-53.7c3.3-2.1,5.6-5.3,6.4-9.1c0.9-3.8,0.2-7.7-1.9-11   C511.3,248,508.1,245.7,504.3,244.9z"/>
        <path   d="M289.8,379.9c-3.8-0.9-7.7-0.2-11,1.9v0l-78,49.1L21.7,329.1c-3.4-1.9-7.3-2.4-11-1.4c-3.7,1-6.9,3.5-8.8,6.8   c-1.9,3.4-2.4,7.3-1.4,11c1,3.7,3.5,6.9,6.8,8.8l186.7,106.1c2.2,1.2,4.7,1.9,7.2,1.9c2.7,0,5.4-0.8,7.7-2.2l85.3-53.7   c3.3-2.1,5.6-5.3,6.4-9.1c0.9-3.8,0.2-7.7-1.9-11C296.8,383.1,293.6,380.8,289.8,379.9z"/>
    </symbol>
    <symbol id="map-4"  viewBox="0 0 508.8 303.7" >
        <path   d="M498.8,114.6c-6.3-6.5-14.6-10.1-23.5-10.1h-7.4v-29c0-18.8-15.3-34.1-34.1-34.1h-16.3v-7  c0-18.8-15.3-34.1-34.1-34.1H361c-18.8,0-34.1,15.3-34.1,34.1v70H181.9v-70c0-18.8-15.3-34.1-34.1-34.1h-22.4  c-18.8,0-34.1,15.3-34.1,34.1v16.5H75c-18.8,0-34.1,15.3-34.1,34.1v23.5h-7.4c0,0,0,0,0,0c-8.9,0-17.2,3.6-23.4,10.1  c-6.2,6.4-9.7,15-9.7,24.1v22.1c0,18.8,14.9,34.1,33.1,34.1h7.4v29c0,18.8,15.3,34.1,34.1,34.1h16.3v7c0,18.8,15.3,34.1,34.1,34.1  h22.4c18.8,0,34.1-15.3,34.1-34.1v-74.1h144.9v74.1c0,18.8,15.3,34.1,34.1,34.1h22.4c18.8,0,34.1-15.3,34.1-34.1v-16.5h16.3  c18.8,0,34.1-15.3,34.1-34.1V195h7.4c18.3,0,33.1-15.3,33.1-34.1v-22.1C508.5,129.7,505,121.1,498.8,114.6z M482.7,138.7v22.1  c0,4.6-3.3,8.4-7.4,8.4h-7.4v-39h7.4C479.4,130.3,482.7,134.1,482.7,138.7z M442.2,75.6v142.9c0,4.6-3.8,8.4-8.4,8.4h-16.3V67.2  h16.3C438.4,67.2,442.2,71,442.2,75.6z M391.8,34.4v234.8c0,4.6-3.8,8.4-8.4,8.4H361c-4.6,0-8.4-3.8-8.4-8.4V34.4  c0-4.6,3.8-8.4,8.4-8.4h22.4C388,26,391.8,29.8,391.8,34.4z M326.9,130.2v39.2H181.9v-39.2H326.9z M147.8,277.6h-22.4  c-4.6,0-8.4-3.8-8.4-8.4V34.4c0-4.6,3.8-8.4,8.4-8.4h22.4c4.6,0,8.4,3.8,8.4,8.4v234.8C156.2,273.8,152.4,277.6,147.8,277.6z   M91.3,76.7v159.8H74.6c-4.5-0.2-8.1-3.9-8.1-8.4V85.1c0-4.6,3.8-8.4,8.4-8.4H91.3z M40.8,134.3v39h-7.4c-4.1,0-7.4-3.8-7.4-8.4  v-22.1c0-4.6,3.3-8.4,7.4-8.4H40.8z"/>
    </symbol>
    <symbol id="map-5"  viewBox="0 0 444.1 512.4" >
		<path   d="M360.2,119.6c-4.5-31.4-19.6-60.2-43-82c-25.9-24.1-59.7-37.4-95.1-37.4S152.9,13.5,127,37.6    c-23.4,21.8-38.5,50.7-43,82c-50.5,22-83.8,72.3-83.8,128c0,77,62.6,139.6,139.6,139.6c23.7,0,46.8-6,67.3-17.3v127.3    c0,8.3,6.7,15,15,15h0c8.3,0,15-6.7,15-15V369.9c20.5,11.3,43.6,17.3,67.3,17.3c77,0,139.6-62.6,139.6-139.6    C444,192,410.7,141.7,360.2,119.6z M304.4,357.2c-24.5,0-48.1-8.2-67.3-23.1v-91.8l54-28.4c7.3-3.9,10.1-12.9,6.3-20.3l0,0    c-3.9-7.3-12.9-10.1-20.3-6.3l-40,21.1v-44.1c0-8.3-6.7-15-15-15h0c-8.3,0-15,6.7-15,15v110.5l-40-21.1c-7.3-3.9-16.4-1-20.3,6.3    l0,0c-3.9,7.3-1,16.4,6.3,20.3l54,28.4v25.3c-19.2,15-42.8,23.1-67.3,23.1c-60.4,0-109.6-49.2-109.6-109.6    c0-46.2,29.2-87.7,72.7-103.2l9.2-3.3l0.7-9.7c2.1-27.5,14.4-53,34.6-71.8c20.3-18.9,46.9-29.4,74.7-29.4s54.3,10.4,74.7,29.4    c20.2,18.9,32.5,44.4,34.6,71.8l0.7,9.7l9.2,3.3c43.5,15.5,72.7,57,72.7,103.2C414,308,364.8,357.2,304.4,357.2z"/>
    </symbol>
    <symbol id="map-6" viewBox="0 0 512 363.2">
        <path   d="M31,288c0,8.3,6.7,15,15,15h421c8.3,0,15-6.7,15-15c0-110.2-79.9-202.1-185.1-221.3c2.6-5.7,4.1-12,4.1-18.7  c0-24.8-20.2-45-45-45s-45,20.2-45,45c0,6.7,1.5,13,4.1,18.7C111.1,85.7,31,176.9,31,288z M241,48c0-8.3,6.7-15,15-15s15,6.7,15,15  s-6.7,15-15,15S241,56.3,241,48z M256,93c103,0,187.7,79.5,195.4,180H61.6C69.3,172.5,153.5,93,256,93z"/>
        <path   d="M497,333H15c-8.3,0-15,6.7-15,15s6.7,15,15,15h482c8.3,0,15-6.7,15-15S505.3,333,497,333z"/>
    </symbol>
    <symbol id="map-7" viewBox="0 0 512 516.5" >
        <path   d="M498.6,255.4h-22.7v-40.7c0-7.3-5.9-13.2-13.2-13.2h-65c-6.7-29.5-22.9-56.7-45.7-76.7   c-22.8-19.9-51.8-32.4-82-35.1v-9.4H336c7.3,0,13.2-5.9,13.2-13.2V13.6c0-7.3-5.9-13.2-13.2-13.2h-79.4c-7.3,0-13.2,5.9-13.2,13.2   v76.1c-30.3,2.9-58.4,14.9-81.3,35c-22.9,20-39.1,47.2-45.7,76.7h-65c-7.3,0-13.2,5.9-13.2,13.2v40.7H15.4   c-7.3,0-13.2,5.9-13.2,13.2v234.5c0,7.3,5.9,13.2,13.2,13.2h483.3c7.3,0,13.2-5.9,13.2-13.2V268.7   C511.9,261.4,505.9,255.4,498.6,255.4z M280.4,409.7v80.3h-46.8v-80.3H280.4z M143.6,201.5c6.7-23.9,21.2-45.4,41.1-60.9   c20.7-16.1,46.3-25,72.3-25c26,0,51.6,8.9,72.3,25c19.8,15.5,34.3,37,41.1,60.9H143.6z M64.6,255.4V228h384.9v27.5H64.6z    M341.3,335.2c-7.3,0-13.2,5.9-13.2,13.2v141.5h-21.2v-93.5c0-7.3-5.9-13.2-13.2-13.2h-73.3c-7.3,0-13.2,5.9-13.2,13.2v93.5h-21.2   V348.4c0-7.3-5.9-13.2-13.2-13.2c-7.3,0-13.2,5.9-13.2,13.2v141.5H28.6v-208h456.8l0,208H354.5V348.4   C354.5,341.1,348.6,335.2,341.3,335.2z M269.9,53.8V26.9h52.9v26.9H269.9z"/>
        <path   d="M354.3,308.8L354.3,308.8c-0.2-0.8-0.4-1.7-0.8-2.5c-0.3-0.8-0.7-1.6-1.2-2.3c-0.5-0.7-1-1.4-1.7-2   c-0.6-0.6-1.3-1.2-2-1.6c-0.7-0.5-1.5-0.9-2.3-1.2c-0.8-0.3-1.6-0.6-2.5-0.8c-1.7-0.3-3.5-0.3-5.2,0c-0.9,0.2-1.7,0.4-2.5,0.8   c-0.8,0.3-1.6,0.7-2.3,1.2c-0.7,0.5-1.4,1-2,1.7c-0.6,0.6-1.2,1.3-1.6,2c-0.5,0.7-0.9,1.5-1.2,2.3c-0.4,0.8-0.6,1.7-0.8,2.5   c-0.2,0.9-0.3,1.7-0.3,2.6c0,0.8,0.1,1.7,0.3,2.6c0.2,0.8,0.4,1.6,0.8,2.5c0.3,0.8,0.7,1.6,1.2,2.3c0.5,0.7,1,1.4,1.7,2   c0.6,0.6,1.3,1.2,2,1.7c0.7,0.5,1.5,0.9,2.3,1.2c0.8,0.3,1.6,0.6,2.5,0.8c0.8,0.2,1.7,0.3,2.6,0.3c0.9,0,1.8-0.1,2.6-0.3   c0.9-0.2,1.7-0.4,2.5-0.8c0.8-0.3,1.6-0.7,2.3-1.2c0.7-0.5,1.4-1,2-1.7c0.6-0.6,1.2-1.3,1.6-2c0.5-0.7,0.9-1.5,1.2-2.3   c0.3-0.8,0.6-1.6,0.8-2.5c0.2-0.8,0.3-1.7,0.3-2.6C354.5,310.5,354.5,309.6,354.3,308.8z"/>
        <path   d="M184.9,306.3c-0.3-0.8-0.7-1.6-1.2-2.3c-0.5-0.7-1-1.4-1.7-2c-0.6-0.6-1.3-1.2-2-1.6c-0.7-0.5-1.5-0.9-2.3-1.2   c-0.8-0.3-1.6-0.6-2.5-0.8c-1.7-0.3-3.5-0.3-5.2,0c-0.9,0.2-1.7,0.4-2.5,0.8c-0.8,0.3-1.6,0.7-2.3,1.2c-0.7,0.5-1.4,1-2,1.7   c-0.6,0.6-1.2,1.3-1.6,2c-0.5,0.7-0.9,1.5-1.2,2.3c-0.4,0.8-0.6,1.7-0.8,2.5c-0.2,0.9-0.3,1.7-0.3,2.6c0,3.5,1.4,6.9,3.9,9.4   c0.6,0.6,1.3,1.2,2,1.7c0.7,0.5,1.5,0.9,2.3,1.2c0.8,0.3,1.6,0.6,2.5,0.8c0.8,0.2,1.7,0.3,2.6,0.3c0.9,0,1.8-0.1,2.6-0.3   c0.8-0.2,1.7-0.4,2.5-0.8c0.8-0.3,1.6-0.7,2.3-1.2c0.7-0.5,1.4-1,2-1.6c2.5-2.5,3.9-5.9,3.9-9.4c0-0.8-0.1-1.7-0.3-2.6   C185.5,308,185.3,307.1,184.9,306.3z"/>
        <path   d="M129.9,295.3H66.4c-7.3,0-13.2,5.9-13.2,13.2v48.3c0,7.3,5.9,13.2,13.2,13.2h63.5c7.3,0,13.2-5.9,13.2-13.2   v-48.3C143.1,301.3,137.2,295.3,129.9,295.3z M79.6,343.7v-21.9h37v21.9H79.6z"/>
        <path   d="M129.9,395.6H66.4c-7.3,0-13.2,5.9-13.2,13.2v48.3c0,7.3,5.9,13.2,13.2,13.2h63.5c7.3,0,13.2-5.9,13.2-13.2   v-48.3C143.1,401.5,137.2,395.6,129.9,395.6z M79.6,443.9v-21.9h37v21.9H79.6z"/>
        <path   d="M288.8,295.3h-63.5c-7.3,0-13.2,5.9-13.2,13.2v48.3c0,7.3,5.9,13.2,13.2,13.2h63.5c7.3,0,13.2-5.9,13.2-13.2   v-48.3C302,301.3,296.1,295.3,288.8,295.3z M238.5,343.7v-21.9h37v21.9H238.5z"/>
        <path   d="M384.1,370.1h63.5c7.3,0,13.2-5.9,13.2-13.2v-48.3c0-7.3-5.9-13.2-13.2-13.2h-63.5c-7.3,0-13.2,5.9-13.2,13.2   v48.3C370.9,364.2,376.8,370.1,384.1,370.1z M397.4,343.7v-21.9h37v21.9H397.4z"/>
        <path   d="M384.1,470.4h63.5c7.3,0,13.2-5.9,13.2-13.2v-48.3c0-7.3-5.9-13.2-13.2-13.2h-63.5c-7.3,0-13.2,5.9-13.2,13.2   v48.3C370.9,464.5,376.8,470.4,384.1,470.4z M397.4,443.9v-21.9h37v21.9H397.4z"/>
    </symbol>
    <symbol id="map-8"   viewBox="0 0 512 502.8" >
        <path   d="M246.9,426.6h2.2c6.9,0,12.6-5.6,12.6-12.6s-5.6-12.6-12.6-12.6h-2.2c-6.9,0-12.6,5.6-12.6,12.6   S239.9,426.6,246.9,426.6z"/>
        <path   d="M282.1,463.1h2.2c6.9,0,12.6-5.6,12.6-12.6s-5.6-12.6-12.6-12.6h-2.2c-6.9,0-12.6,5.6-12.6,12.6   S275.2,463.1,282.1,463.1z"/>
        <path   d="M282.1,426.6h2.2c6.9,0,12.6-5.6,12.6-12.6s-5.6-12.6-12.6-12.6h-2.2c-6.9,0-12.6,5.6-12.6,12.6   S275.2,426.6,282.1,426.6z"/>
        <path   d="M372.4,338.4c-6.6-2.2-13.7,1.4-15.9,8l-3,9.1c-1.1,3.2-0.8,6.6,0.7,9.6c1.5,3,4.1,5.2,7.3,6.3   c1.3,0.4,2.6,0.6,3.9,0.6c5.4,0,10.2-3.5,11.9-8.6l3-9.1c1.1-3.2,0.8-6.6-0.7-9.6C378.2,341.6,375.6,339.4,372.4,338.4z"/>
        <path   d="M246,240v98.4c0,6.9,5.6,12.6,12.6,12.6c6.9,0,12.6-5.6,12.6-12.6V240c0-35.8-6.6-65.9-19.5-89.5   c-12.1-22.1-29.9-38-51.3-46.1l-67.3-30.3c-4.4-2-9.7-1.2-13.3,1.9c-3.7,3.1-5.2,8.2-4,12.9l5,18.4c-34.3,13.4-66.2,41.1-90,78.3   c-1.3,2-2,4.4-2,6.8v62.4c0,6.9,5.6,12.6,12.6,12.6h39.1c0.4,0,0.8,0,1.3-0.1c10.9-1.1,29.4-6.8,32.6-32.3c2.7-0.9,5.5-1.3,8.4-1.3   c14.9,0,26.9,12.1,26.9,26.9c0,16.2-8.7,20.4-33.6,28.3c-14.7,4.7-33,10.5-47.3,23.7c-16.7,15.5-24.9,37.9-24.9,68.5v13.7   C24.8,396,9.6,412.1,9.6,431.6c0,2.8,0.3,5.6,1,8.4c-6.7,6.9-10.5,16.2-10.5,25.7c0,9.8,3.8,19.1,10.8,26.1   c7,7,16.3,10.8,26.1,10.8h129.1c6.9,0,12.6-5.6,12.6-12.6c0-6.9-5.6-12.6-12.6-12.6H37c-3.1,0-6.1-1.2-8.3-3.5   c-2.2-2.2-3.5-5.2-3.5-8.3c0-2,0.5-3.9,1.5-5.6h128.6c6.9,0,12.6-5.6,12.6-12.6s-5.6-12.6-12.6-12.6H35.2c-0.3-1.1-0.5-2.2-0.5-3.3   c0-6.5,5.3-11.8,11.8-11.8l119.5,0c6.9,0,12.6-5.6,12.6-12.6s-5.6-12.6-12.6-12.6l-97,0v-13.6c0-50.9,25.3-58.9,54.6-68.2   c22.8-7.2,51.1-16.2,51.1-52.3c0-28.7-23.4-52.1-52.1-52.1c-9.5,0-18.9,2.6-27,7.5c-3.7,2.3-6.1,6.4-6.1,10.8   c0,13.1-4.3,14.8-9.9,15.4H54V235h1.8c6.9,0,12.6-5.6,12.6-12.6s-5.6-12.6-12.6-12.6H54v-13.7c22.9-34.4,54.1-59.4,85.6-68.7   c6.5-1.9,10.4-8.8,8.6-15.4l-1.1-4l42.5,19.2c0.5,0.2,0.9,0.4,1.4,0.6C226,140.6,246,181.5,246,240z"/>
        <path   d="M309.9,264.4c2.2,4.3,6.5,6.9,11.2,6.9c1.9,0,3.9-0.5,5.7-1.4c32.9-16.6,67-33.7,76.3-62.1   c6.4-19.5-4.2-40.6-23.7-47c-9.5-3.1-18.1-2.8-26.3,1c-4.3-7.9-11-13.3-20.5-16.5c-9.4-3.1-19.5-2.4-28.4,2.1   c-8.9,4.5-15.5,12.1-18.6,21.6C276.2,197.4,293.3,231.4,309.9,264.4z M309.4,176.9c1-3.1,3.2-5.6,6-7c1.7-0.9,3.5-1.3,5.4-1.3   c1.3,0,2.6,0.2,3.8,0.6c4.6,1.5,7.3,3,9.1,15.2c0.7,4.7,4,8.6,8.5,10.1c4.6,1.5,9.5,0.3,12.9-3.1c8.7-8.7,11.7-8.3,16.4-6.8   c6.3,2.1,9.8,8.9,7.7,15.3c-5.3,16.2-28.6,29.6-52.5,41.8C314.8,217.7,304.1,193.1,309.4,176.9z"/>
        <path   d="M300.8,85.3c1.3,0.4,2.6,0.6,3.9,0.6c5.4,0,10.2-3.5,11.9-8.6l3-9.1c1.1-3.2,0.8-6.6-0.7-9.6   c-1.5-3-4.1-5.2-7.3-6.3c-3.2-1.1-6.6-0.8-9.6,0.7c-3,1.5-5.2,4.1-6.3,7.3l-3,9.1C290.6,76,294.2,83.2,300.8,85.3z"/>
        <path   d="M509.7,78.9c-2.2-4.4-5.9-7.6-10.6-9.1L290.5,1c-9.5-3.1-19.9,2.1-23,11.6l-29.8,90.3   c-2.2,6.6,1.4,13.7,8,15.9c3.2,1.1,6.6,0.8,9.6-0.7c3-1.5,5.2-4.1,6.3-7.3L289.2,27l195.4,64.5L384,396.6l-19.7-6.5   c-3.2-1.1-6.6-0.8-9.6,0.7c-3,1.5-5.2,4.1-6.3,7.3c-1.1,3.2-0.8,6.6,0.7,9.6c1.5,3,4.1,5.2,7.3,6.3l26.3,8.7   c1.9,0.6,3.8,0.9,5.7,0.9c2.8,0,5.6-0.7,8.2-2c4.4-2.2,7.6-5.9,9.1-10.6l105-318.3C512.2,88.2,511.9,83.3,509.7,78.9z"/>
        <path   d="M246.9,463.1h2.2c6.9,0,12.6-5.6,12.6-12.6s-5.6-12.6-12.6-12.6h-2.2c-6.9,0-12.6,5.6-12.6,12.6   S239.9,463.1,246.9,463.1z"/>
        <path   d="M312.1,361.9h-92.9c-13.2,0-23.9,10.7-23.9,23.9v92.9c0,13.2,10.7,23.9,23.9,23.9h92.9   c13.2,0,23.9-10.7,23.9-23.9v-92.9C335.9,372.6,325.2,361.9,312.1,361.9z M310.8,387.1v90.3h-90.3v-90.3H310.8z"/>
    </symbol>
    <symbol id="up-arrow"   viewBox="0 0 100 100">
        <path stroke-width="10" fill="none" d="M25 60 L50 40 L75 60"/>
    </symbol>
    <symbol id="moon" viewBox="0 0 512 512">
        <path d="M254.9,512c-58.4,0-114.6-19.9-160.5-57.3c-52.8-43-85.7-104-92.6-171.8c-6.3-61.6,10-123.3,45.9-173.7
            c35.6-49.9,87.8-85.4,147-99.9L232.9,0l-22.4,32.4c-24,34.7-34.9,76.9-30.6,118.9c9.3,91.1,86.5,159.2,176.2,159.2
            c6,0,12.1-0.3,18.2-0.9c42-4.3,81.2-23.5,110.3-54l27.1-28.5l-1.4,39.3c-2.2,61-26.3,119.3-68,164.2
            c-42.1,45.4-99.2,73.8-160.8,80.1C272.5,511.6,263.7,512,254.9,512z M166.4,50.1C128.8,66.3,96,92.7,71.9,126.5
            c-31.7,44.5-46.1,99-40.5,153.4c6.1,59.8,35.2,113.7,81.8,151.6s105.2,55.5,165.1,49.4c54.4-5.6,104.8-30.7,142-70.7
            c28.3-30.5,47.4-67.9,55.7-108c-29,20.5-62.9,33.4-98.7,37.1c-113.6,11.6-215.5-71.3-227.1-185C146.5,118.6,152.2,82.7,166.4,50.1z"
            />
    </symbol>
    <symbol id="sun" viewBox="0 0 512 512">
        <path d="M256,121.8c-74,0-134.2,60.2-134.2,134.2S182,390.2,256,390.2S390.2,330,390.2,256S330,121.8,256,121.8z
             M256,360.2c-57.4,0-104.2-46.7-104.2-104.2S198.6,151.8,256,151.8S360.2,198.6,360.2,256S313.4,360.2,256,360.2z"/>
        <path d="M512,256l-53.5-54.3l19.2-73.8l-73.5-20.2L384,34.3l-73.8,19.2L256,0l-54.3,53.5L128,34.3l-20.2,73.5L34.3,128
            l19.2,73.8L0,256l53.5,54.3L34.3,384l73.5,20.2l20.2,73.5l73.8-19.2L256,512l54.3-53.5l73.8,19.2l20.2-73.5l73.5-20.2l-19.2-73.8
            L512,256z M379.8,379.8l-16.9,61.4l-61.6-16L256,469.8l-45.3-44.7l-61.6,16l-16.9-61.4l-61.4-16.9l16-61.6L42.2,256l44.7-45.3
            l-16-61.6l61.4-16.9l16.9-61.4l61.6,16L256,42.2l45.3,44.7l61.6-16l16.9,61.4l61.4,16.9l-16,61.6l44.7,45.3l-44.7,45.3l16,61.6
            L379.8,379.8z"/>
    </symbol>
    <symbol id="cross" viewBox="0 0 10 10">
        <path d="M 0 0 L 10 10" stroke-width="2" stroke="#fff" fill="none"/>
        <path d="M 10 0 L 0 10" stroke-width="2" stroke="#fff" fill="none"/>
    </symbol>
    <symbol id="cross-black" viewBox="0 0 10 10">
        <path d="M 0 0 L 10 10" stroke-width="2" stroke="#5d6064" fill="none"/>
        <path d="M 10 0 L 0 10" stroke-width="2" stroke="#5d6064" fill="none"/>
    </symbol>
    <symbol id="letter"  viewBox="0 0 383.9 512">
        <path d="M383.9,129.7c-0.1-3-1.3-5.9-3.5-8.1L262.3,3.5c0,0,0,0,0,0c-2.2-2.2-5.2-3.5-8.5-3.5H25.2C11.3,0,0,11.3,0,25.2v461.5    C0,500.7,11.3,512,25.2,512h333.4c13.9,0,25.2-11.3,25.2-25.2V130.1C383.9,129.9,383.9,129.8,383.9,129.7z M265.9,40.9l77.1,77.1    h-72.1c-2.8,0-5.1-2.3-5.1-5.1L265.9,40.9L265.9,40.9z M359.9,486.8c0,0.7-0.6,1.3-1.3,1.3H25.2c-0.7,0-1.3-0.6-1.3-1.3V25.2    c0-0.7,0.6-1.3,1.3-1.3h216.6v89c0,16,13,29,29,29h89L359.9,486.8L359.9,486.8z"/>
    </symbol>
    <symbol id="mail" viewBox="0 0 485.4 321.9">
        <path d="M0,0v321.8h485.4V0H0z M242.7,198.7L43.6,23.9h398.2L242.7,198.7z M163.4,160.9L23.9,283.4V38.3L163.4,160.9z    M181.5,176.7l61.2,53.8l61.2-53.8l138,121.2H43.5L181.5,176.7z M322,160.9L461.5,38.3v245.1L322,160.9z"/>
    </symbol>
    <symbol id="phone" viewBox="0 0 512 512">
		<path   d="M404.6,317.2c-10.5-10.9-23.1-16.7-36.5-16.7c-13.3,0-26,5.7-37,16.6l-34.1,34c-2.8-1.5-5.6-2.9-8.3-4.3    c-3.9-1.9-7.6-3.8-10.7-5.7c-32-20.3-61.1-46.8-88.9-81c-13.5-17.1-22.6-31.4-29.2-46c8.9-8.1,17.1-16.5,25.1-24.6    c3-3,6.1-6.2,9.1-9.2c22.7-22.7,22.7-52.1,0-74.8l-29.5-29.5c-3.3-3.3-6.8-6.8-10-10.3c-6.5-6.7-13.3-13.6-20.3-20.1    c-10.5-10.4-23-15.9-36.2-15.9S72,35.1,61.2,45.5c-0.1,0.1-0.1,0.1-0.2,0.2L24.3,82.8C10.4,96.6,2.5,113.5,0.8,133    c-2.6,31.6,6.7,60.9,13.8,80.2c17.5,47.2,43.7,91,82.7,137.9c47.3,56.5,104.3,101.1,169.3,132.6c24.9,11.8,58,25.7,95.1,28.1    c2.3,0.1,4.6,0.2,6.8,0.2c25,0,45.9-9,62.4-26.8c0.1-0.2,0.3-0.3,0.4-0.5c5.6-6.8,12.1-13,18.9-19.6c4.6-4.4,9.4-9.1,14-13.9    c10.7-11.1,16.3-24.1,16.3-37.4c0-13.4-5.7-26.3-16.6-37.1L404.6,317.2z M443.3,431C443.2,431,443.2,431.1,443.3,431    c-4.2,4.5-8.5,8.6-13.2,13.2c-7,6.7-14.2,13.7-20.9,21.6c-10.9,11.7-23.8,17.2-40.6,17.2c-1.6,0-3.3,0-5-0.1    c-32.1-2.1-61.9-14.6-84.3-25.3c-61.2-29.6-114.9-71.6-159.5-124.9c-36.8-44.4-61.5-85.5-77.8-129.6c-10-26.9-13.7-47.9-12.1-67.6    c1.1-12.6,5.9-23.1,14.9-32.1l36.8-36.8c5.3-5,10.9-7.7,16.4-7.7c6.8,0,12.3,4.1,15.8,7.6c0.1,0.1,0.2,0.2,0.3,0.3    c6.6,6.2,12.9,12.5,19.5,19.3c3.3,3.5,6.8,6.9,10.3,10.5l29.5,29.5c11.5,11.5,11.5,22,0,33.5c-3.1,3.1-6.2,6.3-9.3,9.3    c-9.1,9.3-17.7,17.9-27.1,26.4c-0.2,0.2-0.4,0.3-0.5,0.5c-9.3,9.3-7.6,18.4-5.6,24.5c0.1,0.3,0.2,0.6,0.3,1    c7.7,18.6,18.5,36.1,34.9,56.9l0.1,0.1c29.8,36.7,61.3,65.4,96,87.3c4.4,2.8,9,5.1,13.3,7.2c3.9,1.9,7.6,3.8,10.7,5.7    c0.4,0.2,0.9,0.5,1.3,0.8c3.7,1.8,7.1,2.7,10.7,2.7c9,0,14.6-5.6,16.4-7.5l37-37c3.7-3.7,9.5-8.1,16.3-8.1    c6.7,0,12.2,4.2,15.6,7.9c0.1,0.1,0.1,0.1,0.2,0.2l59.5,59.5C454.3,408.2,454.3,419.5,443.3,431z"/>
		<path  d="M276.7,121.8c28.3,4.8,54,18.2,74.6,38.7s33.8,46.3,38.7,74.6c1.2,7.1,7.3,12.1,14.4,12.1    c0.9,0,1.6-0.1,2.5-0.2c8-1.3,13.3-8.9,12-16.9c-5.8-34.3-22-65.5-46.8-90.2c-24.7-24.7-56-41-90.2-46.8c-8-1.3-15.5,4-16.9,11.9    C263.5,112.8,268.7,120.5,276.7,121.8z"/>
		<path   d="M511.4,225.9c-9.6-56.4-36.2-107.7-77-148.6s-92.2-67.4-148.6-77c-7.9-1.4-15.3,4-16.7,11.9    c-1.3,8,4,15.5,12,16.9c50.4,8.5,96.3,32.4,132.8,68.8c36.5,36.5,60.3,82.5,68.8,132.8c1.2,7.1,7.3,12.1,14.4,12.1    c0.9,0,1.6-0.1,2.5-0.2C507.4,241.3,512.8,233.7,511.4,225.9z"/>
    </symbol>
    <symbol id="percent" viewBox="0 0 512.1 512.1">
<g>
	<g>
		<path d="M511,314.6L488.5,256l22.5-58.6c2.5-6.5,0.5-13.8-4.9-18.2l-48.7-39.5l-9.9-62c-1.1-6.8-6.5-12.2-13.3-13.3l-62-9.9    L332.8,5.9c-4.4-5.4-11.7-7.3-18.2-4.9L256,23.6L197.4,1.1C191-1.4,183.6,0.5,179.3,6l-39.5,48.7l-62,9.9    C71,65.6,65.6,71,64.5,77.8l-9.9,62L5.9,179.3c-5.4,4.4-7.3,11.7-4.9,18.1L23.5,256L1.1,314.6c-2.5,6.5-0.5,13.8,4.9,18.1    l48.7,39.5l9.9,62c1.1,6.8,6.5,12.2,13.3,13.3l62,9.9l39.5,48.7c4.4,5.4,11.7,7.4,18.2,4.9l58.6-22.5l58.6,22.5    c1.9,0.7,3.8,1.1,5.7,1.1c4.7,0,9.3-2.1,12.4-5.9l39.5-48.7l62-9.9c6.8-1.1,12.2-6.5,13.3-13.3l9.9-62l48.7-39.5    C511.5,328.4,513.5,321.1,511,314.6z M456.4,261.8l20.5,53.4l-44.5,36c-3.1,2.5-5.1,6-5.7,9.9l-9,56.5l-56.5,9    c-3.9,0.6-7.4,2.7-9.9,5.7l-36,44.5l-53.4-20.5c-1.9-0.7-3.8-1.1-5.8-1.1s-3.9,0.4-5.7,1.1l-53.4,20.5l-36-44.5    c-2.5-3.1-6-5.1-9.9-5.7l-56.5-9l-9-56.5c-0.6-3.9-2.7-7.4-5.7-9.9l-44.5-36l20.5-53.4c1.4-3.7,1.4-7.8,0-11.5l-20.5-53.5l44.5-36    c3.1-2.5,5.1-6,5.7-9.9l9-56.5l56.5-9c3.9-0.6,7.4-2.7,9.9-5.7l36-44.5l53.4,20.5c3.7,1.4,7.8,1.4,11.5,0l53.4-20.5l36,44.5    c2.5,3.1,6,5.1,9.9,5.7l56.5,9l9,56.5c0.6,3.9,2.7,7.4,5.7,9.9l44.5,36l-20.5,53.4C455,254,455,258.1,456.4,261.8z"/>
	</g>
</g>
<g>
	<g>
		<path d="M208,128c-26.5,0-48,21.5-48,48s21.5,48,48,48s48-21.5,48-48S234.5,128,208,128z M208,192c-8.8,0-16-7.2-16-16    s7.2-16,16-16s16,7.2,16,16S216.8,192,208,192z"/>
	</g>
</g>
<g>
	<g>
		<path d="M304,288c-26.5,0-48,21.5-48,48s21.5,48,48,48s48-21.5,48-48S330.5,288,304,288z M304,352c-8.8,0-16-7.2-16-16    s7.2-16,16-16s16,7.2,16,16S312.8,352,304,352z"/>
	</g>
</g>
<g>
	<g>
		<path d="M345.3,131c-7.2-5.1-17.2-3.5-22.3,3.7l-160,224c-5.2,7.2-3.5,17.2,3.7,22.3c2.8,2,6.1,3,9.3,3c5,0,9.9-2.3,13-6.7    l160-224C354.2,146.1,352.5,136.2,345.3,131z"/>
	</g>
</g>
</symbol>
    <symbol id="calendar" viewBox="0 0 58 58">
<g>
	<path d="M46,34c-6.6,0-12,5.4-12,12s5.4,12,12,12s12-5.4,12-12S52.6,34,46,34z M46,56c-5.5,0-10-4.5-10-10s4.5-10,10-10   s10,4.5,10,10S51.5,56,46,56z"/>
	<path d="M52,45h-5v-5c0-0.6-0.4-1-1-1s-1,0.4-1,1v6c0,0.6,0.4,1,1,1h6c0.6,0,1-0.4,1-1S52.6,45,52,45z"/>
	<path d="M27,21h-2h-7h-2H7v9v2v7v2v9h9h2h9v-9v-2v-7h7h2h9V21h-9h-2H27z M36,23h7v7h-7V23z M18,23h7v7h-7V23z M9,23h7v7H9V23z    M9,32h7v7H9V32z M16,48H9v-7h7V48z M25,48h-7v-7h7V48z M25,39h-7v-7h7V39z M34,30h-7v-7h7V30z"/>
	<path d="M33,55H2V16h48v13c0,0.6,0.4,1,1,1s1-0.4,1-1V15V5c0-0.6-0.4-1-1-1h-5V1c0-0.6-0.4-1-1-1h-7c-0.6,0-1,0.4-1,1v3H15V1   c0-0.6-0.4-1-1-1H7C6.4,0,6,0.4,6,1v3H1C0.4,4,0,4.4,0,5v10v41c0,0.6,0.4,1,1,1h32c0.6,0,1-0.4,1-1S33.6,55,33,55z M39,2h5v3v3h-5   V5V2z M8,2h5v3v3H8V5V2z M2,6h4v3c0,0.6,0.4,1,1,1h7c0.6,0,1-0.4,1-1V6h22v3c0,0.6,0.4,1,1,1h7c0.6,0,1-0.4,1-1V6h4v8H2V6z"/>
</g>
</symbol>
    <symbol id="pointer" viewBox="0 0 61.2 59.9">
<g>
	<path d="M30.9,25.9c3.9,0,7-3.1,7-7s-3.1-7-7-7s-7,3.1-7,7S27.1,25.9,30.9,25.9z M30.9,13.9c2.8,0,5,2.2,5,5s-2.2,5-5,5s-5-2.2-5-5   S28.2,13.9,30.9,13.9z"/>
	<path d="M50.2,36.9h-7.2l3-4.4c5.8-7.7,4.9-20.3-1.8-27c-3.6-3.6-8.4-5.6-13.6-5.6c-5.1,0-9.9,2-13.6,5.6c-6.7,6.7-7.5,19.3-1.8,27   l3.1,4.4H11l-11,23h61.2L50.2,36.9z M17,31.3c-5.2-6.9-4.5-18.3,1.6-24.4c3.2-3.2,7.6-5,12.1-5s8.9,1.8,12.1,5   c6,6,6.8,17.4,1.6,24.4L30.8,51.2l-9.9-14.2l0,0L17,31.3z M12.2,38.9h7.6l10.9,15.8l10.9-15.8H49l9,19H3.2L12.2,38.9z"/>
</g>
</symbol>
    <symbol id="mouse" viewBox="0 0 351.3 578.5">

<path   d="M175.7,0c-46.9,0-91,18.3-124.2,51.5C18.3,84.6,0,128.7,0,175.7l0,227.2c0,96.9,78.8,175.7,175.7,175.7  c46.9,0,91-18.3,124.2-51.5l0,0c33.2-33.2,51.4-77.3,51.4-124.2l0-227.2C351.3,78.8,272.5,0,175.7,0z M321.3,175.7v227.2  c0,38.9-15.1,75.5-42.7,103c0,0,0,0,0,0c-27.5,27.5-64.1,42.7-103,42.7C95.3,548.5,30,483.2,30,402.9V175.7  c0-38.9,15.2-75.5,42.7-103S136.8,30,175.7,30C256,30,321.3,95.3,321.3,175.7z"/>
<path   d="M160.7,112l0,23.5c0,8.3,6.7,15,15,15c4.1,0,7.9-1.7,10.6-4.4s4.4-6.5,4.4-10.6V112c0-8.3-6.7-15-15-15  C167.4,97,160.7,103.7,160.7,112z"/>
<path  d="M136.7,404c-10.4,10.4-16.2,24.3-16.2,39c0,30.4,24.7,55.2,55.2,55.2c14.7,0,28.6-5.7,39-16.2  c10.4-10.4,16.2-24.3,16.2-39c0-30.4-24.7-55.2-55.2-55.2C160.9,387.9,147.1,393.6,136.7,404z M200.8,443c0,6.7-2.6,13-7.4,17.8  s-11.1,7.4-17.8,7.4c-13.9,0-25.2-11.3-25.2-25.2c0-6.7,2.6-13,7.4-17.8c4.8-4.8,11.1-7.4,17.8-7.4  C189.5,417.9,200.8,429.2,200.8,443z"/>
</symbol>
    <symbol id="main01" viewBox="0 0 583 583">
<path   d="M0,0v583h583V0H0z M545,545H240.8V342.2v-38h-38h-88.7v38h88.7V545H38V164.8h139.4v-38H38V38h507v190.1H405.6  V101.4h-38v126.7H266.2v38H545v126.7H380.2h-38v38v50.7h38v-50.7H545V545z"/>
</symbol>
    <symbol id="voko" viewBox="0 0 583 480">
    <g>
        <g>
            <path d="M278,4c11.7,0,23.3,0,35,0c0.8,0.2,1.6,0.5,2.4,0.6c24.1,2.1,47.3,7.9,69.3,17.9    C447.8,51.3,489.9,98.6,510,165.2c0.6,1.9,1.5,3.3,3.1,4.3c25.4,17.4,48.2,37.8,69.9,59.5c0,0.7,0,1.3,0,2c-2.2,2-4.5,4-6.6,6.1    c-25.5,25.3-53.2,47.9-84.1,66.5c-73.5,44.3-152.8,63.9-238.5,55.5c-43.8-4.3-85.6-16.5-125.4-35.3c-1.5-0.7-3-2-5.6-1.6    c30,52.9,73.9,86,132.7,99.1c33.3,7.4,92.2,2.2,103.9-8.8c-0.5-0.4-1-0.9-1.6-1.2c-7.5-3.9-15.1-7.8-22.6-11.7    c-1-0.5-2.4-1-2.4-2.3c0.1-1.4,1.6-1.5,2.7-1.9c4.6-1.4,9.2-2.9,13.8-4.3c37.1-11.3,74.3-22.6,111.4-33.8c1.4-0.4,3-1.5,4.2-0.2    c1.1,1.1-0.3,2.5-0.9,3.6c-20,38.8-40,77.6-60,116.4c-0.6,1.1-1.1,2.9-2.5,2.9c-1.9,0-1.8-2.1-2.3-3.5c-3.5-11.5-6.9-23-10.4-34.4    c-1.9-6.4-1.9-6.4-8.2-3.7c-39.5,16.8-80.7,22.5-122.8,14.4c-87.3-16.7-146.3-67.4-176.6-151.1c-1.4-3.9-3.5-6.5-6.8-8.7    c-14.1-9.3-27.3-19.7-40.2-30.5C22.3,252.5,11.8,241.1,0,231c0-0.7,0-1.3,0-2c2.8-2.7,5.6-5.3,8.3-8c20.2-20,41.9-38.1,65.5-53.9    c4-2.7,6.3-5.8,7.9-10.3c26-71.5,74.7-119.7,147.4-143.2C245,8.4,261.5,5.9,278,4z M123.9,137.6c115.4-53.3,229.4-51.8,343.1,3.2    c-10.8-23.1-26.2-42.5-45.2-58.9c-33.5-29-72.6-45.1-116.8-47.4C223.2,30.3,154,77.3,123.9,137.6z M370.2,318.3    c2.3-0.5,3.6-0.7,4.9-1c59.5-15,111.7-43.7,157.7-84c3.5-3,2.6-4.6-0.3-7.2c-45.5-39.9-97.1-68.2-155.8-83.4    c-1.6-0.4-3.3-0.7-6.1-1.3C424.2,190.9,420.4,272.4,370.2,318.3z M378.8,229.6c-0.1-48.6-38.9-87.4-87.4-87.4    c-48.4,0-87.2,39-87.2,87.5c0,48.7,39.2,87.9,87.6,87.8C339.9,317.5,378.9,278.1,378.8,229.6z M212.2,141.6    c-1.7,0.3-2.3,0.4-3,0.5c-35.9,8.7-69.5,22.8-101.2,41.8c-3,1.8-3.8,4.4-4.4,7.4c-4.9,25.5-4.7,51,0,76.5c0.8,4.2,2.8,7.1,6.6,9.3    c26.7,15.7,54.8,28.1,84.6,36.6c5.7,1.6,11.5,3.1,18.2,4.9C162.4,273.1,159.2,190.5,212.2,141.6z M69.7,230    C69.8,230,69.8,230,69.7,230c0-5.1,0-10.3,0.1-15.4c0-2.3-0.4-3.9-3-1.8c-5.9,4.9-11.7,9.8-17.6,14.7c-2.3,2-1.5,3.7,0.4,5.3    c5.5,4.6,11,9.1,16.4,13.7c0.7,0.6,1.5,1.5,2.6,1.1c1.4-0.6,0.9-2,0.9-3.1C69.8,239.6,69.7,234.8,69.7,230z"/>
            <path  d="M351.4,230c0,33.3-26.9,60.3-60,60.2c-33.4-0.1-59.9-27.1-59.8-60.9c0.1-33.3,26.8-59.8,60.2-59.7    C325.1,169.7,351.4,196.4,351.4,230z M329.8,216c0.1-10.4-7.3-18.1-17.7-18.1c-10,0-17.8,7.6-17.8,17.5c-0.1,10,7.5,18,17.3,18.2    C321.8,233.9,329.7,226.2,329.8,216z"/>
        </g>
    </g>
    </symbol>
    <symbol id="ct_logo" viewBox="0 0 689 159" >
    <g>
        <g>
            <rect class="hide_ct_logo" x="4.4" y="3.3"   width="4.8" height="151.3"/>
            <rect class="hide_ct_logo" x="20.9" y="3.3"   width="4.8" height="151.3"/>
            <rect class="hide_ct_logo" x="37.4" y="3.3"   width="4.8" height="113.4"/>
        </g>
        <g>
            <polygon   points="541.1,110.4 532.5,79.1 528.6,79.1 520,110.4 511.7,79.1 506.5,79.1 517.2,116.7 522.3,116.7
                530.5,86.4 538.8,116.7 543.9,116.7 554.6,79.1 549.4,79.1 		"/>
            <path   d="M113.5,113.1c-8.2,0-14.5-6.4-14.5-15.3c0-9,6.3-15.3,14.5-15.3c4.3,0,8.2,2.3,10.3,5.5l3.9-2.2
                c-3-4.2-7.6-7.4-14.2-7.4c-10.8,0-19.3,7.9-19.3,19.4c0,11.5,8.5,19.4,19.3,19.4c6.6,0,11.2-3.2,14.3-7.4l-4-2.2
                C121.7,110.9,117.8,113.1,113.5,113.1z"/>
            <path   d="M205.2,79h-15.1v37.6h4.7v-14.9h10.4c7.4,0,11.8-5.2,11.8-11.3C217,84.2,212.8,79,205.2,79z M204.7,97.5h-9.9
                V83.2h9.9c4.5,0,7.5,2.9,7.5,7.2C212.2,94.6,209.1,97.5,204.7,97.5z"/>
            <rect x="233.9" y="79" class="st0" width="4.7" height="37.6"/>
            <polygon  points="256,83.2 267.9,83.2 267.9,116.6 272.6,116.6 272.6,83.2 284.5,83.2 284.5,79 256,79 		"/>
            <polygon  points="351.5,79 346.9,79 346.9,116.6 369,116.6 369,112.4 351.5,112.4 		"/>
            <polygon  points="415.8,83.2 427.6,83.2 427.6,116.6 432.3,116.6 432.3,83.2 444.3,83.2 444.3,79 415.8,79 		"/>
            <path class="st0" d="M473.9,78.4c-11.2,0-18.6,8.3-18.6,19.4c0,11.1,7.5,19.4,18.6,19.4c11.1,0,18.6-8.3,18.6-19.4
                C492.6,86.8,485,78.4,473.9,78.4z M473.9,113.1c-8.4,0-13.8-6.5-13.8-15.3c0-8.8,5.4-15.3,13.8-15.3c8.4,0,13.8,6.5,13.8,15.3
                C487.7,106.6,482.3,113.1,473.9,113.1z"/>
            <polygon points="572.1,116.6 596.7,116.6 596.7,112.4 576.8,112.4 576.8,99.5 596.3,99.5 596.3,95.3 576.8,95.3
                576.8,83.2 596.7,83.2 596.7,79 572.1,79 		"/>
            <path d="M663.3,88.6c0-3.6,3.2-6,7.7-6c4.1,0,8.1,1.4,10.9,4.5l2.8-3.4c-3.2-3.3-7.6-5.2-13.3-5.2
                c-7.4,0-12.9,4.2-12.9,10.4c0,13.4,22.2,8.1,22.2,17.7c0,2.9-2.1,6.5-8.8,6.5c-5.3,0-9.3-2.6-11.8-5.4l-2.8,3.6
                c3.1,3.5,7.9,6,14.4,6c10.1,0,13.9-5.6,13.9-11C685.6,92.2,663.3,97.1,663.3,88.6z"/>
            <polygon  points="154.6,79 139.5,116.6 144.5,116.6 157.5,83.9 170.4,116.6 175.5,116.6 160.4,79 		"/>
            <polygon  points="311.3,79 296.2,116.6 301.3,116.6 314.2,83.9 327.1,116.6 332.3,116.6 317.1,79 		"/>
            <path  d="M641.1,90.4c0-6.9-4.9-11.3-11.8-11.3h-15.1v37.6h4.7V83.2h9.9c4.4,0,7.5,2.9,7.5,7.2c0,4.2-3,7.2-7.5,7.2h-5
                l12.2,19h5.5l-10.1-15.3C636.5,100.8,641.1,97.1,641.1,90.4z"/>
        </g>
    </g>
    </symbol>
    <symbol id="eye2" viewBox="0 0 16 10">
        <path d="M8,1.1c2.7,0,5.3,1.5,6.8,3.9c-1.5,2.4-4,3.9-6.8,3.9C5.3,8.9,2.7,7.4,1.2,5C2.7,2.6,5.3,1.1,8,1.1 M8,0   C4.8,0,1.8,1.8,0.1,4.8L0,5l0.1,0.2C1.8,8.2,4.8,10,8,10c3.2,0,6.2-1.8,7.9-4.8L16,5l-0.1-0.2C14.2,1.8,11.2,0,8,0z"/>
        <ellipse cx="8" cy="5" rx="2.5" ry="2.6"/>
    </symbol>
</svg>


