<svg xmlns="http://www.w3.org/2000/svg" xmlns:xlink="http://www.w3.org/1999/xlink" width="0" height="0" style="position:absolute">

    <symbol id="sidebar-logo" viewBox="0 0 364.6 151.3">
        <g>
            <path   d="M109.1,34.7c-8.2,0-14.5-6.4-14.5-15.3c0-9,6.3-15.3,14.5-15.3c4.3,0,8.2,2.3,10.3,5.5l3.9-2.2   c-3-4.2-7.6-7.4-14.2-7.4C98.3,0,89.8,7.9,89.8,19.4c0,11.5,8.5,19.4,19.3,19.4c6.6,0,11.2-3.2,14.3-7.4l-4-2.2   C117.2,32.4,113.4,34.7,109.1,34.7z"/>
            <path   d="M200.8,0.6h-15.1v37.6h4.7V23.3h10.4c7.4,0,11.8-5.2,11.8-11.3C212.6,5.8,208.4,0.6,200.8,0.6z M200.3,19.1   h-9.9V4.8h9.9c4.5,0,7.5,2.9,7.5,7.2C207.8,16.2,204.7,19.1,200.3,19.1z"/>
            <rect x="229.5" y="0.6"   width="4.7" height="37.6"/>
            <polygon   points="251.6,4.8 263.5,4.8 263.5,38.2 268.2,38.2 268.2,4.8 280.1,4.8 280.1,0.6 251.6,0.6  "/>
            <polygon   points="347.1,0.6 342.5,0.6 342.5,38.2 364.6,38.2 364.6,34 347.1,34  "/>
            <polygon   points="150.2,0.6 135.1,38.2 140.1,38.2 153.1,5.5 165.9,38.2 171.1,38.2 156,0.6  "/>
            <polygon   points="306.9,0.6 291.8,38.2 296.8,38.2 309.8,5.5 322.7,38.2 327.8,38.2 312.7,0.6  "/>
        </g>
        <g>
            <polygon   points="215.1,106.6 206.5,75.3 202.6,75.3 194,106.6 185.7,75.3 180.5,75.3 191.2,112.8 196.3,112.8    204.5,82.5 212.8,112.8 217.9,112.8 228.6,75.3 223.4,75.3  "/>
            <polygon   points="89.8,79.4 101.6,79.4 101.6,112.8 106.3,112.8 106.3,79.4 118.3,79.4 118.3,75.2 89.8,75.2  "/>
            <path   d="M147.9,74.6c-11.2,0-18.6,8.3-18.6,19.4c0,11.1,7.5,19.4,18.6,19.4c11.1,0,18.6-8.3,18.6-19.4   C166.5,82.9,159,74.6,147.9,74.6z M147.9,109.3c-8.4,0-13.8-6.5-13.8-15.3c0-8.8,5.4-15.3,13.8-15.3c8.4,0,13.8,6.5,13.8,15.3   C161.7,102.7,156.3,109.3,147.9,109.3z"/>
            <polygon   points="246.1,112.8 270.7,112.8 270.7,108.6 250.8,108.6 250.8,95.7 270.3,95.7 270.3,91.5 250.8,91.5    250.8,79.4 270.7,79.4 270.7,75.2 246.1,75.2  "/>
            <path   d="M337.3,84.8c0-3.6,3.2-6,7.7-6c4.1,0,8.1,1.4,10.9,4.5l2.8-3.4c-3.2-3.3-7.6-5.2-13.3-5.2   c-7.4,0-12.9,4.2-12.9,10.4c0,13.4,22.2,8.1,22.2,17.7c0,2.9-2.1,6.5-8.8,6.5c-5.3,0-9.3-2.6-11.8-5.4l-2.8,3.6   c3.1,3.5,7.9,6,14.4,6c10.1,0,13.9-5.6,13.9-11C359.6,88.4,337.3,93.2,337.3,84.8z"/>
            <path   d="M315.1,86.5c0-6.9-4.9-11.3-11.8-11.3h-15.1v37.6h4.7V79.4h9.9c4.4,0,7.5,2.9,7.5,7.2c0,4.2-3,7.2-7.5,7.2h-5   l12.2,19h5.5l-10.1-15.3C310.5,97,315.1,93.3,315.1,86.5z"/>
        </g>
        <g>
            <rect y="0"   width="4.8" height="151.3"/>
            <rect x="16.5" y="0"   width="4.8" height="151.3"/>
            <rect x="33" y="0"   width="4.8" height="113.4"/>
        </g>
    </symbol>

</svg>


